<mxfile host="app.diagrams.net" agent="Mozilla/5.0 (Windows NT 10.0; Win64; x64) AppleWebKit/537.36 (KHTML, like Gecko) Chrome/131.0.0.0 Safari/537.36 Edg/131.0.0.0" version="26.0.1">
  <diagram id="R2lEEEUBdFMjLlhIrx00" name="Page-1">
    <mxGraphModel dx="1626" dy="786" grid="1" gridSize="10" guides="1" tooltips="1" connect="1" arrows="1" fold="1" page="1" pageScale="1" pageWidth="850" pageHeight="1100" math="0" shadow="0" extFonts="Permanent Marker^https://fonts.googleapis.com/css?family=Permanent+Marker">
      <root>
        <mxCell id="0" />
        <mxCell id="1" parent="0" />
        <mxCell id="5F5oQR9xoUEDwheyP2OU-1" value="Evento" style="rounded=1;arcSize=10;whiteSpace=wrap;html=1;align=center;" parent="1" vertex="1">
          <mxGeometry x="375" y="140" width="100" height="40" as="geometry" />
        </mxCell>
        <mxCell id="5F5oQR9xoUEDwheyP2OU-3" value="Luogo" style="ellipse;whiteSpace=wrap;html=1;align=center;" parent="1" vertex="1">
          <mxGeometry x="375" y="60" width="100" height="40" as="geometry" />
        </mxCell>
        <mxCell id="5F5oQR9xoUEDwheyP2OU-4" value="Data" style="ellipse;whiteSpace=wrap;html=1;align=center;fontStyle=4;" parent="1" vertex="1">
          <mxGeometry x="245" y="60" width="100" height="40" as="geometry" />
        </mxCell>
        <mxCell id="5F5oQR9xoUEDwheyP2OU-5" value="Capacita" style="ellipse;whiteSpace=wrap;html=1;align=center;" parent="1" vertex="1">
          <mxGeometry x="505" y="60" width="100" height="40" as="geometry" />
        </mxCell>
        <mxCell id="5F5oQR9xoUEDwheyP2OU-7" value="Attribute" style="ellipse;whiteSpace=wrap;html=1;align=center;fontStyle=4;" parent="1" vertex="1">
          <mxGeometry x="180" y="320" width="100" height="40" as="geometry" />
        </mxCell>
        <mxCell id="5F5oQR9xoUEDwheyP2OU-9" value="Attribute" style="ellipse;whiteSpace=wrap;html=1;align=center;" parent="1" vertex="1">
          <mxGeometry x="180" y="400" width="100" height="40" as="geometry" />
        </mxCell>
        <mxCell id="5F5oQR9xoUEDwheyP2OU-10" value="Banco" style="rounded=1;arcSize=10;whiteSpace=wrap;html=1;align=center;" parent="1" vertex="1">
          <mxGeometry x="375" y="320" width="100" height="40" as="geometry" />
        </mxCell>
        <mxCell id="5F5oQR9xoUEDwheyP2OU-11" value="Guardaroba" style="rounded=1;arcSize=10;whiteSpace=wrap;html=1;align=center;" parent="1" vertex="1">
          <mxGeometry x="505" y="560" width="100" height="40" as="geometry" />
        </mxCell>
        <mxCell id="5F5oQR9xoUEDwheyP2OU-12" value="Ingresso" style="rounded=1;arcSize=10;whiteSpace=wrap;html=1;align=center;" parent="1" vertex="1">
          <mxGeometry x="240" y="560" width="100" height="40" as="geometry" />
        </mxCell>
        <mxCell id="5F5oQR9xoUEDwheyP2OU-13" value="HA" style="shape=rhombus;perimeter=rhombusPerimeter;whiteSpace=wrap;html=1;align=center;" parent="1" vertex="1">
          <mxGeometry x="365" y="210" width="120" height="60" as="geometry" />
        </mxCell>
        <mxCell id="5F5oQR9xoUEDwheyP2OU-14" value="Assegna" style="shape=rhombus;perimeter=rhombusPerimeter;whiteSpace=wrap;html=1;align=center;" parent="1" vertex="1">
          <mxGeometry x="495" y="710" width="120" height="60" as="geometry" />
        </mxCell>
        <mxCell id="5F5oQR9xoUEDwheyP2OU-15" value="Gruccia" style="rounded=1;arcSize=10;whiteSpace=wrap;html=1;align=center;" parent="1" vertex="1">
          <mxGeometry x="505" y="830" width="100" height="40" as="geometry" />
        </mxCell>
        <mxCell id="5F5oQR9xoUEDwheyP2OU-16" value="Per" style="shape=rhombus;perimeter=rhombusPerimeter;whiteSpace=wrap;html=1;align=center;" parent="1" vertex="1">
          <mxGeometry x="790" y="820" width="120" height="60" as="geometry" />
        </mxCell>
        <mxCell id="5F5oQR9xoUEDwheyP2OU-17" value="Biglietto" style="rounded=1;arcSize=10;whiteSpace=wrap;html=1;align=center;" parent="1" vertex="1">
          <mxGeometry x="800" y="200" width="100" height="40" as="geometry" />
        </mxCell>
        <mxCell id="5F5oQR9xoUEDwheyP2OU-19" value="EB" style="shape=rhombus;perimeter=rhombusPerimeter;whiteSpace=wrap;html=1;align=center;" parent="1" vertex="1">
          <mxGeometry x="560" y="210" width="120" height="60" as="geometry" />
        </mxCell>
        <mxCell id="5F5oQR9xoUEDwheyP2OU-20" value="Persona" style="rounded=1;arcSize=10;whiteSpace=wrap;html=1;align=center;" parent="1" vertex="1">
          <mxGeometry x="1175" y="90" width="100" height="40" as="geometry" />
        </mxCell>
        <mxCell id="5F5oQR9xoUEDwheyP2OU-21" value="Organizzatore" style="rounded=1;arcSize=10;whiteSpace=wrap;html=1;align=center;" parent="1" vertex="1">
          <mxGeometry x="1070" y="200" width="100" height="40" as="geometry" />
        </mxCell>
        <mxCell id="5F5oQR9xoUEDwheyP2OU-22" value="Staff" style="rounded=1;arcSize=10;whiteSpace=wrap;html=1;align=center;" parent="1" vertex="1">
          <mxGeometry x="1310" y="200" width="100" height="40" as="geometry" />
        </mxCell>
        <mxCell id="5F5oQR9xoUEDwheyP2OU-23" value="CF" style="ellipse;whiteSpace=wrap;html=1;align=center;fontStyle=4;" parent="1" vertex="1">
          <mxGeometry x="1000" y="20" width="100" height="40" as="geometry" />
        </mxCell>
        <mxCell id="5F5oQR9xoUEDwheyP2OU-24" value="Nome" style="ellipse;whiteSpace=wrap;html=1;align=center;" parent="1" vertex="1">
          <mxGeometry x="1110" y="20" width="100" height="40" as="geometry" />
        </mxCell>
        <mxCell id="5F5oQR9xoUEDwheyP2OU-25" value="Cognome" style="ellipse;whiteSpace=wrap;html=1;align=center;" parent="1" vertex="1">
          <mxGeometry x="1220" y="20" width="100" height="40" as="geometry" />
        </mxCell>
        <mxCell id="5F5oQR9xoUEDwheyP2OU-26" value="DI" style="shape=rhombus;perimeter=rhombusPerimeter;whiteSpace=wrap;html=1;align=center;" parent="1" vertex="1">
          <mxGeometry x="790" y="80" width="120" height="60" as="geometry" />
        </mxCell>
        <mxCell id="C57nEhRPr9zmEdhHjsFl-1" value="Email" style="ellipse;whiteSpace=wrap;html=1;align=center;" vertex="1" parent="1">
          <mxGeometry x="1330" y="20" width="100" height="40" as="geometry" />
        </mxCell>
        <mxCell id="C57nEhRPr9zmEdhHjsFl-2" value="" style="endArrow=none;html=1;rounded=0;" edge="1" parent="1" source="5F5oQR9xoUEDwheyP2OU-20" target="5F5oQR9xoUEDwheyP2OU-23">
          <mxGeometry width="50" height="50" relative="1" as="geometry">
            <mxPoint x="800" y="180" as="sourcePoint" />
            <mxPoint x="850" y="130" as="targetPoint" />
          </mxGeometry>
        </mxCell>
        <mxCell id="C57nEhRPr9zmEdhHjsFl-5" value="" style="endArrow=none;html=1;rounded=0;" edge="1" parent="1" source="5F5oQR9xoUEDwheyP2OU-20" target="C57nEhRPr9zmEdhHjsFl-1">
          <mxGeometry width="50" height="50" relative="1" as="geometry">
            <mxPoint x="1185" y="100" as="sourcePoint" />
            <mxPoint x="1095" y="64" as="targetPoint" />
          </mxGeometry>
        </mxCell>
        <mxCell id="C57nEhRPr9zmEdhHjsFl-6" value="" style="endArrow=none;html=1;rounded=0;" edge="1" parent="1" source="5F5oQR9xoUEDwheyP2OU-20" target="5F5oQR9xoUEDwheyP2OU-25">
          <mxGeometry width="50" height="50" relative="1" as="geometry">
            <mxPoint x="1195" y="110" as="sourcePoint" />
            <mxPoint x="1105" y="74" as="targetPoint" />
          </mxGeometry>
        </mxCell>
        <mxCell id="C57nEhRPr9zmEdhHjsFl-7" value="" style="endArrow=none;html=1;rounded=0;" edge="1" parent="1" source="5F5oQR9xoUEDwheyP2OU-20" target="5F5oQR9xoUEDwheyP2OU-24">
          <mxGeometry width="50" height="50" relative="1" as="geometry">
            <mxPoint x="1205" y="120" as="sourcePoint" />
            <mxPoint x="1115" y="84" as="targetPoint" />
          </mxGeometry>
        </mxCell>
        <mxCell id="C57nEhRPr9zmEdhHjsFl-10" value="" style="shape=flexArrow;endArrow=classic;html=1;rounded=0;width=36;endSize=5.67;" edge="1" parent="1" target="5F5oQR9xoUEDwheyP2OU-20">
          <mxGeometry width="50" height="50" relative="1" as="geometry">
            <mxPoint x="1225" y="160" as="sourcePoint" />
            <mxPoint x="1110" y="160" as="targetPoint" />
          </mxGeometry>
        </mxCell>
        <mxCell id="C57nEhRPr9zmEdhHjsFl-11" value="" style="endArrow=none;html=1;rounded=0;" edge="1" parent="1" source="5F5oQR9xoUEDwheyP2OU-22" target="5F5oQR9xoUEDwheyP2OU-21">
          <mxGeometry width="50" height="50" relative="1" as="geometry">
            <mxPoint x="1360" y="160" as="sourcePoint" />
            <mxPoint x="1080" y="160" as="targetPoint" />
            <Array as="points">
              <mxPoint x="1360" y="160" />
              <mxPoint x="1120" y="160" />
            </Array>
          </mxGeometry>
        </mxCell>
        <mxCell id="C57nEhRPr9zmEdhHjsFl-12" value="Password" style="ellipse;whiteSpace=wrap;html=1;align=center;" vertex="1" parent="1">
          <mxGeometry x="940" y="200" width="100" height="40" as="geometry" />
        </mxCell>
        <mxCell id="C57nEhRPr9zmEdhHjsFl-13" value="Password" style="ellipse;whiteSpace=wrap;html=1;align=center;" vertex="1" parent="1">
          <mxGeometry x="1440" y="200" width="100" height="40" as="geometry" />
        </mxCell>
        <mxCell id="C57nEhRPr9zmEdhHjsFl-14" value="" style="endArrow=none;html=1;rounded=0;" edge="1" parent="1" source="5F5oQR9xoUEDwheyP2OU-21" target="C57nEhRPr9zmEdhHjsFl-12">
          <mxGeometry width="50" height="50" relative="1" as="geometry">
            <mxPoint x="1110" y="306" as="sourcePoint" />
            <mxPoint x="1020" y="270" as="targetPoint" />
          </mxGeometry>
        </mxCell>
        <mxCell id="C57nEhRPr9zmEdhHjsFl-15" value="" style="endArrow=none;html=1;rounded=0;" edge="1" parent="1" source="5F5oQR9xoUEDwheyP2OU-22" target="C57nEhRPr9zmEdhHjsFl-13">
          <mxGeometry width="50" height="50" relative="1" as="geometry">
            <mxPoint x="1400" y="340" as="sourcePoint" />
            <mxPoint x="1478" y="305" as="targetPoint" />
          </mxGeometry>
        </mxCell>
        <mxCell id="C57nEhRPr9zmEdhHjsFl-17" value="" style="endArrow=none;html=1;rounded=0;" edge="1" parent="1" source="5F5oQR9xoUEDwheyP2OU-1" target="5F5oQR9xoUEDwheyP2OU-4">
          <mxGeometry width="50" height="50" relative="1" as="geometry">
            <mxPoint x="1185" y="100" as="sourcePoint" />
            <mxPoint x="1095" y="64" as="targetPoint" />
          </mxGeometry>
        </mxCell>
        <mxCell id="C57nEhRPr9zmEdhHjsFl-18" value="" style="endArrow=none;html=1;rounded=0;" edge="1" parent="1" source="5F5oQR9xoUEDwheyP2OU-10" target="5F5oQR9xoUEDwheyP2OU-9">
          <mxGeometry width="50" height="50" relative="1" as="geometry">
            <mxPoint x="1195" y="120" as="sourcePoint" />
            <mxPoint x="1105" y="84" as="targetPoint" />
          </mxGeometry>
        </mxCell>
        <mxCell id="C57nEhRPr9zmEdhHjsFl-19" value="" style="endArrow=none;html=1;rounded=0;" edge="1" parent="1" source="5F5oQR9xoUEDwheyP2OU-1" target="5F5oQR9xoUEDwheyP2OU-5">
          <mxGeometry width="50" height="50" relative="1" as="geometry">
            <mxPoint x="1205" y="120" as="sourcePoint" />
            <mxPoint x="1115" y="84" as="targetPoint" />
          </mxGeometry>
        </mxCell>
        <mxCell id="C57nEhRPr9zmEdhHjsFl-20" value="" style="endArrow=none;html=1;rounded=0;" edge="1" parent="1" source="5F5oQR9xoUEDwheyP2OU-1" target="5F5oQR9xoUEDwheyP2OU-3">
          <mxGeometry width="50" height="50" relative="1" as="geometry">
            <mxPoint x="1215" y="130" as="sourcePoint" />
            <mxPoint x="1125" y="94" as="targetPoint" />
          </mxGeometry>
        </mxCell>
        <mxCell id="C57nEhRPr9zmEdhHjsFl-21" value="" style="shape=flexArrow;endArrow=classic;html=1;rounded=0;width=36;endSize=5.67;" edge="1" parent="1">
          <mxGeometry width="50" height="50" relative="1" as="geometry">
            <mxPoint x="424" y="520" as="sourcePoint" />
            <mxPoint x="424" y="360" as="targetPoint" />
          </mxGeometry>
        </mxCell>
        <mxCell id="C57nEhRPr9zmEdhHjsFl-23" value="" style="endArrow=none;html=1;rounded=0;" edge="1" parent="1" source="5F5oQR9xoUEDwheyP2OU-10" target="5F5oQR9xoUEDwheyP2OU-7">
          <mxGeometry width="50" height="50" relative="1" as="geometry">
            <mxPoint x="403" y="160" as="sourcePoint" />
            <mxPoint x="332" y="117" as="targetPoint" />
          </mxGeometry>
        </mxCell>
        <mxCell id="C57nEhRPr9zmEdhHjsFl-24" value="" style="endArrow=none;html=1;rounded=0;" edge="1" parent="1" source="5F5oQR9xoUEDwheyP2OU-10" target="5F5oQR9xoUEDwheyP2OU-13">
          <mxGeometry width="50" height="50" relative="1" as="geometry">
            <mxPoint x="385" y="330" as="sourcePoint" />
            <mxPoint x="284" y="309" as="targetPoint" />
          </mxGeometry>
        </mxCell>
        <mxCell id="C57nEhRPr9zmEdhHjsFl-25" value="" style="endArrow=none;html=1;rounded=0;" edge="1" parent="1" source="5F5oQR9xoUEDwheyP2OU-13" target="5F5oQR9xoUEDwheyP2OU-1">
          <mxGeometry width="50" height="50" relative="1" as="geometry">
            <mxPoint x="395" y="340" as="sourcePoint" />
            <mxPoint x="294" y="319" as="targetPoint" />
          </mxGeometry>
        </mxCell>
        <mxCell id="C57nEhRPr9zmEdhHjsFl-26" value="" style="endArrow=none;html=1;rounded=0;" edge="1" parent="1" source="5F5oQR9xoUEDwheyP2OU-11" target="5F5oQR9xoUEDwheyP2OU-12">
          <mxGeometry width="50" height="50" relative="1" as="geometry">
            <mxPoint x="545" y="560" as="sourcePoint" />
            <mxPoint x="305" y="560" as="targetPoint" />
            <Array as="points">
              <mxPoint x="555" y="520" />
              <mxPoint x="290" y="520" />
            </Array>
          </mxGeometry>
        </mxCell>
        <mxCell id="C57nEhRPr9zmEdhHjsFl-27" value="" style="endArrow=none;html=1;rounded=0;" edge="1" parent="1" source="5F5oQR9xoUEDwheyP2OU-11" target="5F5oQR9xoUEDwheyP2OU-14">
          <mxGeometry width="50" height="50" relative="1" as="geometry">
            <mxPoint x="386" y="370" as="sourcePoint" />
            <mxPoint x="275" y="416" as="targetPoint" />
          </mxGeometry>
        </mxCell>
        <mxCell id="C57nEhRPr9zmEdhHjsFl-28" value="" style="endArrow=none;html=1;rounded=0;" edge="1" parent="1" source="5F5oQR9xoUEDwheyP2OU-14" target="5F5oQR9xoUEDwheyP2OU-15">
          <mxGeometry width="50" height="50" relative="1" as="geometry">
            <mxPoint x="565" y="610" as="sourcePoint" />
            <mxPoint x="565" y="720" as="targetPoint" />
          </mxGeometry>
        </mxCell>
        <mxCell id="C57nEhRPr9zmEdhHjsFl-29" value="" style="endArrow=none;html=1;rounded=0;" edge="1" parent="1" source="5F5oQR9xoUEDwheyP2OU-16" target="5F5oQR9xoUEDwheyP2OU-15">
          <mxGeometry width="50" height="50" relative="1" as="geometry">
            <mxPoint x="565" y="780" as="sourcePoint" />
            <mxPoint x="565" y="840" as="targetPoint" />
          </mxGeometry>
        </mxCell>
        <mxCell id="C57nEhRPr9zmEdhHjsFl-30" value="" style="endArrow=none;html=1;rounded=0;" edge="1" parent="1" source="5F5oQR9xoUEDwheyP2OU-17" target="5F5oQR9xoUEDwheyP2OU-16">
          <mxGeometry width="50" height="50" relative="1" as="geometry">
            <mxPoint x="575" y="790" as="sourcePoint" />
            <mxPoint x="575" y="850" as="targetPoint" />
          </mxGeometry>
        </mxCell>
        <mxCell id="C57nEhRPr9zmEdhHjsFl-31" value="" style="endArrow=none;html=1;rounded=0;" edge="1" parent="1" source="5F5oQR9xoUEDwheyP2OU-26" target="5F5oQR9xoUEDwheyP2OU-17">
          <mxGeometry width="50" height="50" relative="1" as="geometry">
            <mxPoint x="585" y="800" as="sourcePoint" />
            <mxPoint x="585" y="860" as="targetPoint" />
          </mxGeometry>
        </mxCell>
        <mxCell id="C57nEhRPr9zmEdhHjsFl-32" value="" style="endArrow=none;html=1;rounded=0;" edge="1" parent="1" source="5F5oQR9xoUEDwheyP2OU-26" target="5F5oQR9xoUEDwheyP2OU-20">
          <mxGeometry width="50" height="50" relative="1" as="geometry">
            <mxPoint x="595" y="810" as="sourcePoint" />
            <mxPoint x="595" y="870" as="targetPoint" />
          </mxGeometry>
        </mxCell>
      </root>
    </mxGraphModel>
  </diagram>
</mxfile>
